<?xml version="1.0" encoding="UTF-8"?>
<svg width="61px" height="64px" viewBox="0 0 61 64" version="1.1" xmlns="http://www.w3.org/2000/svg" xmlns:xlink="http://www.w3.org/1999/xlink">
    <!-- Generator: Sketch 43.1 (39012) - http://www.bohemiancoding.com/sketch -->
    <title>Imported Layers Copy 6</title>
    <desc>Created with Sketch.</desc>
    <defs></defs>
    <g id="Page-1" stroke="none" stroke-width="1" fill="none" fill-rule="evenodd">
        <g id="Weather-@2x" transform="translate(-765.000000, -568.000000)" fill="#979797">
            <g id="Night-Time-icons" transform="translate(23.000000, 551.000000)">
                <g id="nt_clear" transform="translate(723.000000, 0.000000)">
                    <path d="M49.0318952,80.02649 C39.2533824,81.0306328 30.9803568,77.9459185 24.1222029,71.0882043 C22.4863568,69.4523471 21.0539978,67.6153471 19.5596388,65.8443471 C18.8998952,65.0602043 18.8553824,64.4787757 19.2591773,63.86749 C19.6597927,63.2640614 20.3290747,63.1210614 21.2861004,63.3567757 C28.0425106,65.0162043 34.7353311,64.9046328 41.0943055,61.9487757 C51.3688183,57.1716328 57.1936388,49.0253471 58.6323568,37.9373471 C59.4733311,31.4489185 57.8088696,25.41149 54.427485,19.8203471 C54.3209722,19.6459185 54.2160491,19.47149 54.1063568,19.2986328 C53.7248183,18.6952043 53.7136901,18.0902043 54.1747158,17.53549 C54.6389209,16.9792043 55.2621004,16.8802043 55.9186645,17.12849 C65.7194337,20.8260614 73.3756388,26.9436328 76.9970747,36.8939185 C81.5389722,49.3726328 79.0208183,60.6193471 69.6604081,70.1893471 C65.0644594,74.88949 59.3858952,77.83749 52.9506132,79.3319185 C51.6597414,79.6320614 50.3386645,79.7986328 49.0318952,80.02649 L49.0318952,80.02649 Z M24.1174337,66.92549 C24.7119978,67.5729185 25.231844,68.1653471 25.7803055,68.72949 C29.503485,72.56849 33.8085106,75.5117757 39.1452799,76.6070614 C48.2688183,78.4786328 56.6849209,76.6353471 64.217126,71.2830614 C75.0019465,63.6207757 78.5836388,50.9063471 74.7412286,38.9493471 C72.1292799,30.8250614 66.5063568,25.2700614 58.9153311,21.5112043 C58.8501517,21.4797757 58.767485,21.4813471 58.699126,21.4687757 C63.4890235,33.0926328 62.6591773,44.2042043 55.0824594,54.2943471 C47.4580491,64.4489185 36.8433311,68.2502043 24.1174337,66.92549 L24.1174337,66.92549 Z" id="Imported-Layers-Copy-6"></path>
                </g>
            </g>
        </g>
    </g>
</svg>
