<?xml version="1.0" encoding="UTF-8"?>
<svg width="98px" height="72px" viewBox="0 0 98 72" version="1.1" xmlns="http://www.w3.org/2000/svg" xmlns:xlink="http://www.w3.org/1999/xlink">
    <!-- Generator: Sketch 43.1 (39012) - http://www.bohemiancoding.com/sketch -->
    <title>Imported Layers</title>
    <desc>Created with Sketch.</desc>
    <defs></defs>
    <g id="Page-1" stroke="none" stroke-width="1" fill="none" fill-rule="evenodd">
        <g id="Weather-@2x" transform="translate(-1183.000000, -297.000000)" fill="#979797">
            <g id="partlycloudy" transform="translate(1181.000000, 285.000000)">
                <g id="Imported-Layers" transform="translate(1.980198, 12.000000)">
                    <path d="M82.2352339,41.4470233 C81.180676,41.4470233 80.1278081,41.5607674 79.0986002,41.7865581 C75.8064869,34.0587442 68.1271424,28.902907 59.8174292,28.902907 C49.4476101,28.902907 40.8252475,36.3098605 39.108211,46.5960698 L39.0355411,46.5960698 C32.2552748,46.5960698 26.739126,52.189907 26.739126,59.067186 C26.739126,65.9410698 32.2552748,71.5332093 39.0355411,71.5332093 L82.2352339,71.5332093 C90.4131273,71.5332093 97.0666439,64.7849535 97.0666439,56.4901163 C97.0666439,48.1952791 90.4131273,41.4470233 82.2352339,41.4470233 L82.2352339,41.4470233 Z M94.0837999,56.4901163 C94.0837999,63.1229302 88.7687607,68.5198372 82.2352339,68.5198372 L39.0355411,68.5198372 C33.8996415,68.5198372 29.72197,64.2790465 29.72197,59.067186 C29.72197,53.8519302 33.8996415,49.6094419 39.0355411,49.6094419 C39.3786104,49.6094419 39.7537897,49.6366047 40.2151588,49.6943256 L41.7310857,49.8844651 L41.8831854,48.3497674 C42.8177535,38.982 50.5292079,31.9179767 59.8174292,31.9179767 C67.4156538,31.9179767 74.23648,36.8089767 76.7900649,44.092 L77.2717139,45.4671163 L78.6456811,45.0240233 C79.8134688,44.6505349 81.0201263,44.462093 82.2352339,44.462093 C88.7687607,44.462093 94.0837999,49.8573023 94.0837999,56.4901163 L94.0837999,56.4901163 Z" id="Fill-1"></path>
                    <path d="M21.4156367,22.1936977 C22.0054455,22.859186 23.0295835,22.9203023 23.6920621,22.3295116 C24.3562308,21.7370233 24.4170707,20.7082326 23.8272619,20.0427442 L14.351451,9.32193023 C13.7633322,8.65644186 12.7391943,8.59532558 12.0750256,9.18781395 C11.4125469,9.77860465 11.3517071,10.8073953 11.9398259,11.4745814 L21.4156367,22.1936977" id="Fill-2"></path>
                    <path d="M20.283339,48.7062791 L9.83578013,58.4713023 C9.18682144,59.0790698 9.14964152,60.1078605 9.7529703,60.7614651 C10.3579891,61.4133721 11.383817,61.4507209 12.0327757,60.8429535 L22.4803346,51.0779302 C23.1292933,50.4718605 23.1664732,49.4413721 22.5631444,48.7894651 C21.9581256,48.1375581 20.9322977,48.1002093 20.283339,48.7062791" id="Fill-3"></path>
                    <path d="M62.2375043,11.466093 C61.6324855,10.814186 60.6066576,10.7768372 59.9576989,11.382907 L49.51014,21.1479302 C48.8611813,21.7556977 48.8240014,22.7844884 49.4290201,23.438093 C50.0323489,24.09 51.0581769,24.1273488 51.7071355,23.5195814 L62.1546944,13.7545581 C62.8036531,13.1484884 62.840833,12.118 62.2375043,11.466093" id="Fill-4"></path>
                    <path d="M37.5449642,17.7814419 C38.4288324,17.8510465 39.2079208,17.1804651 39.2772107,16.2925814 L40.3909184,2.00155814 C40.4602083,1.11367442 39.7926596,0.329348837 38.9087914,0.259744186 C38.0249232,0.190139535 37.2441448,0.86072093 37.1748549,1.74860465 L36.0628371,16.0396279 C35.9935473,16.9292093 36.6594059,17.7118372 37.5449642,17.7814419" id="Fill-5"></path>
                    <path d="M17.836224,34.6189767 L17.836224,34.6189767 C17.9173438,33.7327907 17.2616251,32.9399767 16.3794469,32.8567907 L2.16995562,31.5292093 C1.2860874,31.4477209 0.496858996,32.1047209 0.41573916,32.9926047 C0.332929327,33.8804884 0.988648003,34.6733023 1.87082622,34.7547907 L16.0803175,36.0823721 C16.9641857,36.1655581 17.7534141,35.5068605 17.836224,34.6189767" id="Fill-6"></path>
                    <path d="M23.9489416,35.1401628 C24.5353704,28.5769535 30.3269887,23.7165116 36.8605155,24.3056047 C40.1610789,24.6043953 43.0256231,26.2375581 44.9792591,28.626186 C45.6907477,27.9233488 46.4664561,27.2544651 47.3080744,26.639907 C44.8525094,23.6587907 41.2629566,21.6215814 37.132605,21.2497907 C28.9226016,20.5096047 21.6437863,26.6178372 20.9069478,34.8651395 C20.4303687,40.1958372 22.8098839,45.1224884 26.7627859,48.1494419 C27.208945,47.3786977 27.8105838,46.5366512 28.6099522,45.7115814 C25.4648686,43.3025814 23.5703824,39.3809535 23.9489416,35.1401628" id="Fill-7"></path>
                </g>
            </g>
        </g>
    </g>
</svg>
