<?xml version="1.0" encoding="UTF-8"?>
<svg width="97px" height="67px" viewBox="0 0 97 67" version="1.1" xmlns="http://www.w3.org/2000/svg" xmlns:xlink="http://www.w3.org/1999/xlink">
    <!-- Generator: Sketch 43.1 (39012) - http://www.bohemiancoding.com/sketch -->
    <title>Imported Layers</title>
    <desc>Created with Sketch.</desc>
    <defs></defs>
    <g id="Page-1" stroke="none" stroke-width="1" fill="none" fill-rule="evenodd">
        <g id="Weather-@2x" transform="translate(-1184.000000, -702.000000)" fill="#979797">
            <g id="Night-Time-icons" transform="translate(23.000000, 551.000000)">
                <g id="nt_partlycloudy" transform="translate(1158.000000, 136.000000)">
                    <g id="Imported-Layers" transform="translate(1.960784, 14.000000)">
                        <path d="M29.1540164,63.0894286 C26.5417457,63.2011429 23.8693865,63.0117143 21.1242884,62.4272381 C15.8175206,61.2987619 11.5338393,58.2679048 7.83206831,54.3125714 C7.28652751,53.7297143 6.76786844,53.1209524 6.17647059,52.4539048 C18.8345984,53.8187619 29.3943707,49.9006667 36.9765971,39.44 C44.5145478,29.0440952 45.3383934,17.5958095 40.5740038,5.61971429 C40.6419987,5.63266667 40.7242252,5.63104762 40.7890576,5.66342857 C48.1388362,9.43257143 53.6100569,14.9745714 56.2934851,22.985619 C57.1568627,22.7281905 58.0961417,22.5015238 59.0464896,22.3655238 C58.9531942,22.0805714 58.8741303,21.7972381 58.7745098,21.5122857 C55.1723593,11.2588571 47.5585073,4.95752381 37.8099304,1.14628571 C37.1568627,0.892095238 36.5354206,0.99247619 36.0752688,1.5672381 C35.615117,2.13714286 35.6277672,2.76209524 36.0056926,3.38380952 C36.1148008,3.56190476 36.2207464,3.74161905 36.3251107,3.92133333 C39.6884883,9.68028571 41.344086,15.9022857 40.5075901,22.5857143 C39.0765338,34.0113333 33.2827324,42.4044762 23.0629349,47.3247619 C16.7378242,50.3701905 10.0806452,50.4867619 3.36021505,48.7770476 C2.4082859,48.5341905 1.74256799,48.6815238 1.34408602,49.3032381 C0.942441493,49.9314286 0.986717268,50.5320952 1.64452878,51.338381 C3.12934851,53.1646667 4.5540797,55.0573333 6.18121442,56.7427619 C13.0028463,63.8082857 21.2333966,66.9864762 30.9582543,65.9502857 C31.1195446,65.9211429 31.2824162,65.8968571 31.4452878,65.8693333 C30.6325111,65.1019048 29.8371284,64.192 29.1540164,63.0894286" id="Fill-1"></path>
                        <path d="M83.1941809,38.8247619 C82.2058824,38.8247619 81.2207464,38.9332381 80.2577483,39.1485714 C77.1790006,31.7770476 69.9936749,26.861619 62.2185326,26.861619 C52.5158128,26.861619 44.4481341,33.9255238 42.841556,43.7353333 L42.773561,43.7353333 C36.429475,43.7353333 31.2681847,49.0700952 31.2681847,55.6272381 C31.2681847,62.184381 36.429475,67.5175238 42.773561,67.5175238 L83.1941809,67.5175238 C90.8459836,67.5175238 97.0698925,61.0818095 97.0698925,53.1711429 C97.0698925,45.2604762 90.8459836,38.8247619 83.1941809,38.8247619 L83.1941809,38.8247619 Z M94.2789374,53.1711429 C94.2789374,59.4967619 89.3074004,64.6437143 83.1941809,64.6437143 L42.773561,64.6437143 C37.9680582,64.6437143 34.0591398,60.5993333 34.0591398,55.6272381 C34.0591398,50.6535238 37.9680582,46.6091429 42.773561,46.6091429 C43.0945604,46.6091429 43.4440228,46.6350476 43.8757116,46.6884762 L45.2941176,46.8714286 L45.4364326,45.4078095 C46.3124605,36.4722857 53.5262492,29.7354286 62.2185326,29.7354286 C69.327957,29.7354286 75.7099937,34.4015238 78.097723,41.3472381 L78.5499684,42.6570476 L79.8355471,42.2360952 C80.9266287,41.8782857 82.0572423,41.6985714 83.1941809,41.6985714 C89.3074004,41.6985714 94.2789374,46.8439048 94.2789374,53.1711429 L94.2789374,53.1711429 Z" id="Fill-2"></path>
                    </g>
                </g>
            </g>
        </g>
    </g>
</svg>
