<?xml version="1.0" encoding="UTF-8"?>
<svg width="100px" height="68px" viewBox="0 0 100 68" version="1.1" xmlns="http://www.w3.org/2000/svg" xmlns:xlink="http://www.w3.org/1999/xlink">
    <!-- Generator: Sketch 43.1 (39012) - http://www.bohemiancoding.com/sketch -->
    <title>Imported Layers</title>
    <desc>Created with Sketch.</desc>
    <defs></defs>
    <g id="Page-1" stroke="none" stroke-width="1" fill="none" fill-rule="evenodd">
        <g id="Weather-@2x" transform="translate(-1472.000000, -567.000000)" fill="#979797">
            <g id="Night-Time-icons" transform="translate(23.000000, 551.000000)">
                <g id="nt_mostlycloudy" transform="translate(1449.000000, 0.000000)">
                    <g id="Imported-Layers" transform="translate(0.000000, 16.000000)">
                        <path d="M31.7409091,40.9285 L9.32575758,40.9285 C5.56818182,40.9285 2.51212121,37.5803571 2.51212121,33.4633571 C2.51212121,29.3447143 5.56818182,25.9949286 9.32575758,25.9949286 C9.57727273,25.9949286 9.85151515,26.0162857 10.1878788,26.0622857 L11.2969697,26.2134286 L11.4090909,25.001 C12.0939394,17.6032143 17.7348485,12.0240714 24.530303,12.0240714 C30.0893939,12.0240714 35.0787879,15.8880714 36.9454545,21.6380714 L37.2984848,22.724 L38.3045455,22.3740714 C39.1575758,22.08 40.0409091,21.9305 40.930303,21.9305 C41.1060606,21.9305 41.2772727,21.9469286 41.4515152,21.9584286 C41.5363636,21.1912143 41.6060606,20.4059286 41.6439394,19.5894286 C41.4075758,19.573 41.1712121,19.55 40.930303,19.55 C40.1590909,19.55 39.3878788,19.6403571 38.6348485,19.8177857 C36.2272727,13.7162143 30.6090909,9.64521429 24.530303,9.64521429 C16.9439394,9.64521429 10.6348485,15.4937857 9.37878788,23.6160714 L9.32575758,23.6160714 C4.36515152,23.6160714 0.33030303,28.0337143 0.33030303,33.4633571 C0.33030303,38.8913571 4.36515152,43.309 9.32575758,43.309 L28.2666667,43.309 L28.2378788,43.3024286 C28.2378788,43.3024286 29.7424242,42.5877857 31.7409091,40.9285" id="Fill-1"></path>
                        <path d="M34.0090909,63.0725714 C31.5060606,63.1859286 28.9454545,62.9920714 26.3166667,62.4006429 C21.230303,61.2555714 17.1257576,58.1801429 13.5787879,54.1666429 C13.0560606,53.5752143 12.5606061,52.9558571 11.9939394,52.2806429 C24.1227273,53.6639286 34.2393939,49.6898571 41.5060606,39.0753571 C48.7272727,28.5265714 49.5166667,16.9099286 44.9530303,4.75771429 C45.0166667,4.77085714 45.0954545,4.76757143 45.1575758,4.80207143 C52.2015152,8.625 57.4424242,14.2501429 60.0136364,22.379 C60.8409091,22.1161429 61.7409091,21.8877857 62.6515152,21.7481429 C62.5621212,21.459 62.4878788,21.1731429 62.3909091,20.8823571 C58.9393939,10.4797857 51.6439394,4.08414286 42.3030303,0.2185 C41.6772727,-0.0410714286 41.0818182,0.0624285714 40.6409091,0.644 C40.2015152,1.22392857 40.2121212,1.85642857 40.5742424,2.48892857 C40.6787879,2.668 40.780303,2.85035714 40.880303,3.03435714 C44.1030303,8.878 45.6893939,15.1915 44.8878788,21.9732143 C43.5166667,33.5668571 37.9651515,42.0834286 28.1727273,47.0760714 C22.1121212,50.1662857 15.7333333,50.2829286 9.29393939,48.5480714 C8.38181818,48.3032857 7.74393939,48.4511429 7.36212121,49.0836429 C6.97727273,49.7210714 7.01969697,50.3289286 7.65,51.1487143 C9.07272727,53.0002143 10.4378788,54.9207143 11.9969697,56.6325714 C18.5333333,63.802 26.419697,67.0252857 35.7378788,65.9755 C35.8924242,65.9459286 36.0484848,65.9196429 36.2045455,65.8917143 C35.4257576,65.1146429 34.6636364,64.1897143 34.0090909,63.0725714" id="Fill-2"></path>
                        <path d="M85.7893939,38.4494286 C84.8439394,38.4494286 83.8984848,38.5595 82.9757576,38.778 C80.0257576,31.2997143 73.1409091,26.3103571 65.6909091,26.3103571 C56.3939394,26.3103571 48.6636364,33.4781429 47.1242424,43.4338571 C47.1030303,43.4322143 47.080303,43.4322143 47.0590909,43.4322143 C40.980303,43.4322143 36.0348485,48.8470714 36.0348485,55.5006429 C36.0348485,62.1525714 40.980303,67.5657857 47.0590909,67.5657857 L85.7893939,67.5657857 C93.1212121,67.5657857 99.0863636,61.0337857 99.0863636,53.0067857 C99.0863636,44.9814286 93.1212121,38.4494286 85.7893939,38.4494286 L85.7893939,38.4494286 Z M96.4121212,53.0067857 C96.4121212,59.4270714 91.6469697,64.6480714 85.7893939,64.6480714 L47.0590909,64.6480714 C42.4545455,64.6480714 38.7090909,60.5442143 38.7090909,55.5006429 C38.7090909,50.4537857 42.4545455,46.3482857 47.0590909,46.3482857 C47.3666667,46.3482857 47.7015152,46.3745714 48.1151515,46.4304286 L49.4742424,46.6144286 L49.6106061,45.1292857 C50.45,36.064 57.3636364,29.2280714 65.6909091,29.2280714 C72.5030303,29.2280714 78.6181818,33.9627857 80.9060606,41.0106429 L81.3393939,42.3397143 L82.5712121,41.9109286 C83.6166667,41.5495 84.7,41.3671429 85.7893939,41.3671429 C91.6469697,41.3671429 96.4121212,46.5881429 96.4121212,53.0067857 L96.4121212,53.0067857 Z" id="Fill-3"></path>
                    </g>
                </g>
            </g>
        </g>
    </g>
</svg>
