<?xml version="1.0" encoding="UTF-8"?>
<svg width="36px" height="66px" viewBox="0 0 36 66" version="1.1" xmlns="http://www.w3.org/2000/svg" xmlns:xlink="http://www.w3.org/1999/xlink">
    <!-- Generator: Sketch 43.1 (39012) - http://www.bohemiancoding.com/sketch -->
    <title>?</title>
    <desc>Created with Sketch.</desc>
    <defs></defs>
    <g id="Page-1" stroke="none" stroke-width="1" fill="none" fill-rule="evenodd">
        <g id="Weather-@2x" transform="translate(-1379.000000, -714.000000)" fill="#979797">
            <path d="M1399.73664,761.883895 L1393.46942,761.883895 L1393.46942,756.511994 C1393.46942,754.840728 1393.6634,753.333626 1394.05138,751.990644 C1394.43935,750.647662 1394.97653,749.438997 1395.66295,748.364611 C1396.34936,747.290226 1397.12529,746.320309 1397.99077,745.454831 C1398.85625,744.589354 1399.73663,743.738812 1400.63196,742.903179 L1403.13884,740.664887 C1404.63105,739.471125 1405.86955,738.098319 1406.85441,736.546429 C1407.83926,734.994539 1408.33168,733.054705 1408.33168,730.72687 C1408.33168,729.055604 1408.03324,727.563424 1407.43636,726.250286 C1406.83948,724.937148 1406.03371,723.832935 1405.01901,722.937614 C1404.00431,722.042293 1402.82549,721.35589 1401.48251,720.878385 C1400.13952,720.40088 1398.69211,720.162132 1397.14022,720.162132 C1393.91706,720.162132 1391.30575,721.14697 1389.3062,723.116677 C1387.30665,725.086384 1386.06814,727.593246 1385.59063,730.637338 L1379.50248,729.562958 C1380.3978,724.907287 1382.44209,721.251447 1385.6354,718.595327 C1388.82871,715.939207 1392.75314,714.611168 1397.40882,714.611168 C1399.79634,714.611168 1402.04953,714.954369 1404.16846,715.640782 C1406.28738,716.327195 1408.12277,717.341877 1409.67466,718.684859 C1411.22655,720.027841 1412.46506,721.68416 1413.39022,723.653867 C1414.31539,725.623574 1414.77796,727.861844 1414.77796,730.368743 C1414.77796,732.278762 1414.56906,733.950003 1414.15124,735.382517 C1413.73342,736.815031 1413.15147,738.098306 1412.40537,739.23238 C1411.65927,740.366453 1410.77888,741.396057 1409.76419,742.321223 C1408.74949,743.246388 1407.67512,744.186461 1406.54105,745.141471 C1405.2876,746.156168 1404.22815,747.081319 1403.36267,747.916953 C1402.49719,748.752586 1401.79587,749.632972 1401.25868,750.558137 C1400.72148,751.483303 1400.33352,752.512907 1400.09477,753.64698 C1399.85601,754.781054 1399.73664,756.153859 1399.73664,757.765437 L1399.73664,761.883895 Z M1402.06446,774.776457 C1402.06446,776.029907 1401.61681,777.149041 1400.72149,778.133895 C1399.82617,779.118748 1398.66227,779.611168 1397.22975,779.611168 C1395.79724,779.611168 1394.63334,779.118748 1393.73802,778.133895 C1392.8427,777.149041 1392.39504,776.029907 1392.39504,774.776457 C1392.39504,773.523007 1392.8427,772.403872 1393.73802,771.419019 C1394.63334,770.434165 1395.79724,769.941746 1397.22975,769.941746 C1398.66227,769.941746 1399.82617,770.434165 1400.72149,771.419019 C1401.61681,772.403872 1402.06446,773.523007 1402.06446,774.776457 Z" id="?"></path>
        </g>
    </g>
</svg>
