<?xml version="1.0" encoding="UTF-8"?>
<svg width="76px" height="75px" viewBox="0 0 76 75" version="1.1" xmlns="http://www.w3.org/2000/svg" xmlns:xlink="http://www.w3.org/1999/xlink">
    <!-- Generator: Sketch 43.1 (39012) - http://www.bohemiancoding.com/sketch -->
    <title>Imported Layers</title>
    <desc>Created with Sketch.</desc>
    <defs></defs>
    <g id="Page-1" stroke="none" stroke-width="1" fill="none" fill-rule="evenodd">
        <g id="Weather-@2x" transform="translate(-758.000000, -163.000000)" fill="#fff">
            <g id="clear" transform="translate(746.000000, 151.000000)">
                <g id="Imported-Layers" transform="translate(12.000000, 12.000000)">
                    <path d="M62.9506383,62.8615 L52.0325106,52.7978333 C51.3549787,52.174 51.3210213,51.1179167 51.9597447,50.4529167 C52.5984681,49.7895 53.6770213,49.7578333 54.3561702,50.38325 L65.2742979,60.4453333 C65.9518298,61.07075 65.9841702,62.12525 65.3454468,62.79025 C64.7083404,63.45525 63.6297872,63.4869167 62.9506383,62.8615" id="Fill-1"></path>
                    <path d="M21.2379574,24.6651667 L10.3198298,14.6030833 C9.64068085,13.9776667 9.60834043,12.9231667 10.2470638,12.2581667 C10.8857872,11.5931667 11.9627234,11.5615 12.6418723,12.1869167 L23.56,22.2505833 C24.2391489,22.876 24.2714894,23.9305 23.632766,24.5955 C22.9940426,25.2589167 21.9154894,25.2905833 21.2379574,24.6651667" id="Fill-2"></path>
                    <path d="M12.5108936,62.7364167 L22.5315745,51.8145833 C23.1541277,51.1369167 24.2310638,51.0799167 24.924766,51.6895 C25.6184681,52.2990833 25.6750638,53.3535833 25.0525106,54.0328333 L15.0318298,64.9546667 C14.4092766,65.6323333 13.3323404,65.6893333 12.6402553,65.07975 C11.9465532,64.4701667 11.8883404,63.4156667 12.5108936,62.7364167" id="Fill-3"></path>
                    <path d="M50.54,21.0155833 L60.5606809,10.09375 C61.183234,9.41608333 62.2601702,9.35908333 62.9538723,9.96866667 C63.6459574,10.57825 63.7041702,11.63275 63.081617,12.312 L53.0609362,23.2338333 C52.438383,23.9115 51.3614468,23.9685 50.6677447,23.3589167 C49.9756596,22.7493333 49.9174468,21.6948333 50.54,21.0155833" id="Fill-4"></path>
                    <path d="M36.8276596,72.9568333 L36.6562553,58.2761667 C36.6465532,57.3641667 37.4000851,56.6089167 38.3314894,56.5994167 C39.2628936,56.5883333 40.0342128,57.3261667 40.0455319,58.2381667 L40.2169362,72.9188333 C40.2266383,73.8324167 39.4731064,74.5860833 38.5417021,74.5971667 C37.6102979,74.60825 36.8389787,73.8704167 36.8276596,72.9568333" id="Fill-5"></path>
                    <path d="M35.9900426,17.043 L35.8186383,2.36233333 C35.8073191,1.44875 36.5608511,0.695083333 37.4922553,0.684 C38.4236596,0.672916667 39.1949787,1.41075 39.2062979,2.32433333 L39.3777021,17.005 C39.3890213,17.917 38.6338723,18.67225 37.7024681,18.68175 C36.7710638,18.6928333 35.9997447,17.955 35.9900426,17.043" id="Fill-6"></path>
                    <path d="M1.96953191,35.9590833 L16.9641702,36.0065833 C17.8955745,36.00975 18.6555745,36.7586667 18.6523404,37.6706667 C18.6507234,38.5826667 17.8858723,39.3268333 16.9528511,39.3236667 L1.95982979,39.27775 C1.02680851,39.2745833 0.266808511,38.5256667 0.270042553,37.6136667 C0.273276596,36.7000833 1.03812766,35.9559167 1.96953191,35.9590833" id="Fill-7"></path>
                    <path d="M59.0811064,35.9575 L74.0757447,36.0034167 C75.0071489,36.0065833 75.7671489,36.7555 75.7639149,37.6675 C75.7606809,38.5810833 74.9958298,39.32525 74.0644255,39.3220833 L59.0697872,39.2745833 C58.138383,39.2714167 57.378383,38.5225 57.381617,37.6105 C57.3848511,36.6985 58.1497021,35.9543333 59.0811064,35.9575" id="Fill-8"></path>
                    <path d="M37.5973617,22.2585 C28.9365957,22.2585 21.889617,29.1586667 21.889617,37.639 C21.889617,46.1209167 28.9365957,53.0210833 37.5973617,53.0210833 C46.2597447,53.0210833 53.3067234,46.1209167 53.3067234,37.639 C53.3067234,29.1586667 46.2597447,22.2585 37.5973617,22.2585 L37.5973617,22.2585 Z M50.0969362,37.639 C50.0969362,44.3871667 44.4891064,49.8781667 37.5973617,49.8781667 C30.705617,49.8781667 25.0994043,44.3871667 25.0994043,37.639 C25.0994043,30.8908333 30.705617,25.3998333 37.5973617,25.3998333 C44.4891064,25.3998333 50.0969362,30.8908333 50.0969362,37.639 L50.0969362,37.639 Z" id="Fill-9"></path>
                </g>
            </g>
        </g>
    </g>
</svg>
