<?xml version="1.0" encoding="UTF-8"?>
<svg width="79px" height="75px" viewBox="0 0 79 75" version="1.1" xmlns="http://www.w3.org/2000/svg" xmlns:xlink="http://www.w3.org/1999/xlink">
    <!-- Generator: Sketch 43.1 (39012) - http://www.bohemiancoding.com/sketch -->
    <title>Imported Layers</title>
    <desc>Created with Sketch.</desc>
    <defs></defs>
    <g id="Page-1" stroke="none" stroke-width="1" fill="none" fill-rule="evenodd">
        <g id="Weather-@2x" transform="translate(-320.000000, -298.000000)" fill="#fff">
            <g id="rain" transform="translate(310.000000, 285.000000)">
                <g id="Imported-Layers" transform="translate(10.000000, 13.000000)">
                    <path d="M62.3446154,14.6969388 C61.16,14.6969388 59.9784615,14.822449 58.8215385,15.0734694 C55.1276923,6.48214286 46.5076923,0.751530612 37.18,0.751530612 C25.5415385,0.751530612 15.8615385,8.98469388 13.9353846,20.4214286 C13.9076923,20.419898 13.88,20.419898 13.8538462,20.419898 C6.24307692,20.419898 0.0507692308,26.6403061 0.0507692308,34.2841837 C0.0507692308,41.9265306 6.24307692,48.1438776 13.8538462,48.1438776 L62.3446154,48.1438776 C71.5230769,48.1438776 78.9923077,40.6408163 78.9923077,31.4204082 C78.9923077,22.1984694 71.5230769,14.6969388 62.3446154,14.6969388 L62.3446154,14.6969388 Z M75.6430769,31.4204082 C75.6430769,38.794898 69.6784615,44.7933673 62.3446154,44.7933673 L13.8538462,44.7933673 C8.08923077,44.7933673 3.39846154,40.0790816 3.39846154,34.2841837 C3.39846154,28.4862245 8.08923077,23.7704082 13.8538462,23.7704082 C14.2384615,23.7704082 14.6584615,23.8010204 15.1769231,23.8637755 L16.8769231,24.0765306 L17.0492308,22.369898 C18.0984615,11.9556122 26.7538462,4.10204082 37.18,4.10204082 C45.7107692,4.10204082 53.3661538,9.54183673 56.2307692,17.6372449 L56.7723077,19.1647959 L58.3153846,18.6734694 C59.6246154,18.2571429 60.98,18.047449 62.3446154,18.047449 C69.6784615,18.047449 75.6430769,24.0459184 75.6430769,31.4204082 L75.6430769,31.4204082 Z" id="Fill-1"></path>
                    <path d="M14.0876923,57.3673469 C15.4969231,59.9280612 16.9076923,62.4887755 18.3169231,65.0494898 C19.2984615,66.8311224 22.04,65.2408163 21.0569231,63.4561224 C19.6461538,60.8954082 18.2369231,58.3346939 16.8261538,55.7739796 C15.8446154,53.9923469 13.1046154,55.5841837 14.0876923,57.3673469" id="Fill-2"></path>
                    <path d="M29.8030769,57.3673469 C31.2138462,59.9280612 32.6246154,62.4887755 34.0338462,65.0494898 C35.0153846,66.8311224 37.7569231,65.2408163 36.7738462,63.4561224 C35.3630769,60.8954082 33.9538462,58.3346939 32.5430769,55.7739796 C31.5615385,53.9923469 28.8215385,55.5841837 29.8030769,57.3673469" id="Fill-3"></path>
                    <path d="M46.3230769,57.3673469 C47.7338462,59.9280612 49.1430769,62.4887755 50.5538462,65.0494898 C51.5353846,66.8311224 54.2753846,65.2408163 53.2938462,63.4561224 C51.8830769,60.8954082 50.4723077,58.3346939 49.0630769,55.7739796 C48.0815385,53.9923469 45.34,55.5841837 46.3230769,57.3673469" id="Fill-4"></path>
                    <path d="M62.2876923,57.3673469 C63.6984615,59.9280612 65.1076923,62.4887755 66.5184615,65.0494898 C67.5,66.8311224 70.24,65.2408163 69.2584615,63.4561224 C67.8476923,60.8954082 66.4369231,58.3346939 65.0276923,55.7739796 C64.0461538,53.9923469 61.3046154,55.5841837 62.2876923,57.3673469" id="Fill-5"></path>
                    <path d="M27.0030769,66.4408163 C28.4123077,69.0015306 29.8230769,71.5622449 31.2323077,74.1229592 C32.2138462,75.9045918 34.9553846,74.3142857 33.9723077,72.5295918 C32.5630769,69.9688776 31.1523077,67.4081633 29.7415385,64.847449 C28.7615385,63.0658163 26.02,64.6561224 27.0030769,66.4408163" id="Fill-6"></path>
                    <path d="M42.7169231,66.4362245 C44.1276923,68.9969388 45.5369231,71.5576531 46.9476923,74.1183673 C47.9292308,75.9015306 50.6692308,74.3096939 49.6876923,72.525 C48.2769231,69.9642857 46.8661538,67.4035714 45.4569231,64.8428571 C44.4753846,63.0612245 41.7338462,64.6530612 42.7169231,66.4362245" id="Fill-7"></path>
                    <path d="M58.7476923,65.802551 C60.1569231,68.3632653 61.5676923,70.9239796 62.9769231,73.4846939 C63.9584615,75.2663265 66.7,73.6760204 65.7169231,71.8913265 C64.3061538,69.3306122 62.8969231,66.769898 61.4861538,64.2091837 C60.5046154,62.427551 57.7646154,64.0178571 58.7476923,65.802551" id="Fill-8"></path>
                </g>
            </g>
        </g>
    </g>
</svg>
