<?xml version="1.0" encoding="UTF-8"?>
<svg width="93px" height="83px" viewBox="0 0 93 83" version="1.1" xmlns="http://www.w3.org/2000/svg" xmlns:xlink="http://www.w3.org/1999/xlink">
    <!-- Generator: Sketch 43.1 (39012) - http://www.bohemiancoding.com/sketch -->
    <title>Imported Layers Copy 5</title>
    <desc>Created with Sketch.</desc>
    <defs></defs>
    <g id="Page-1" stroke="none" stroke-width="1" fill="none" fill-rule="evenodd">
        <g id="Weather-@2x" transform="translate(-895.000000, -298.000000)" fill="#000">
            <g id="Day-Time-icons" transform="translate(23.000000, 151.000000)">
                <g id="tstorms" transform="translate(868.000000, 134.000000)">
                    <g id="Imported-Layers-Copy-5" transform="translate(3.000000, 13.000000)">
                        <path d="M17.7888286,33.0435246 L11.3364,33.0435246 C7.13057143,33.0435246 3.70762857,29.5398361 3.70762857,25.2333607 C3.70762857,20.9255246 7.13057143,17.4218361 11.3364,17.4218361 C11.6170571,17.4218361 11.9232286,17.4436066 12.3019143,17.4912295 L13.5427143,17.6490656 L13.6676,16.3809344 C14.4343714,8.64152459 20.7484857,2.80567213 28.3571143,2.80567213 C31.6605429,2.80567213 34.7786571,3.95406557 37.2951714,5.92293443 C37.8390286,5.29703279 38.4084,4.70378689 39.01,4.15272131 C36.0208,1.73483607 32.2769143,0.315672131 28.3571143,0.315672131 C19.8635429,0.315672131 12.8014571,6.43454098 11.3954857,14.9318361 L11.3364,14.9318361 C5.78368571,14.9318361 1.26497143,19.5539836 1.26497143,25.2333607 C1.26497143,30.9127377 5.78368571,35.5335246 11.3364,35.5335246 L17.8452286,35.5335246 C17.7874857,35.0178361 17.7485429,34.4967049 17.7485429,33.9633279 C17.7485429,33.6530984 17.7686857,33.3483115 17.7888286,33.0435246" id="Fill-1"></path>
                        <path d="M77.9931429,14.9576885 C76.9108,14.9576885 75.8298,15.0760656 74.7729714,15.3100984 C71.3943429,7.30808197 63.5117714,1.97022951 54.9819429,1.97022951 C44.3384571,1.97022951 35.4876857,9.63888525 33.7245143,20.2887377 L33.6506571,20.2887377 C26.6906286,20.2887377 21.0278,26.0810492 21.0278,33.2 C21.0278,40.3189508 26.6906286,46.108541 33.6506571,46.108541 L77.9931429,46.108541 C86.3873429,46.108541 93.2171143,39.1215738 93.2171143,30.5331148 C93.2171143,21.9446557 86.3873429,14.9576885 77.9931429,14.9576885 L77.9931429,14.9576885 Z M90.1554,30.5331148 C90.1554,37.4017049 84.7007143,42.9885574 77.9931429,42.9885574 L33.6506571,42.9885574 C28.3786,42.9885574 24.0895143,38.5977213 24.0895143,33.2 C24.0895143,27.800918 28.3786,23.4087213 33.6506571,23.4087213 C34.0024857,23.4087213 34.3865429,23.4372951 34.8592286,23.4958033 L36.4156,23.694459 L36.5713714,22.1052131 C37.5328571,12.4050984 45.4476571,5.09021311 54.9819429,5.09021311 C62.7826,5.09021311 69.7829143,10.1559344 72.4028286,17.6966885 L72.8983429,19.1199344 L74.3096857,18.6613934 C75.5075143,18.2749672 76.7469714,18.0790328 77.9931429,18.0790328 C84.7007143,18.0790328 90.1554,23.6658852 90.1554,30.5331148 L90.1554,30.5331148 Z" id="Fill-2"></path>
                        <path d="M33.8641714,54.6997213 C35.1533143,57.0835902 36.4424571,59.4688197 37.7329429,61.8540492 C38.6299714,63.5140492 41.1357429,62.0322951 40.2373714,60.3695738 C38.9482286,57.9857049 37.6590857,55.6004754 36.3686,53.2152459 C35.4715714,51.5566066 32.9658,53.0383607 33.8641714,54.6997213" id="Fill-3"></path>
                        <path d="M77.9421143,54.6997213 C79.2312571,57.0835902 80.5217429,59.4688197 81.8108857,61.8540492 C82.7079143,63.5140492 85.2150286,62.0322951 84.3166571,60.3695738 C83.0261714,57.9857049 81.7370286,55.6004754 80.4478857,53.2152459 C79.5495143,51.5566066 77.0437429,53.0383607 77.9421143,54.6997213" id="Fill-4"></path>
                        <path d="M74.7044857,62.5547869 C75.9936286,64.9400164 77.2827714,67.3252459 78.5732571,69.7104754 C79.4702857,71.3691148 81.9760571,69.8873607 81.0776857,68.226 C79.7885429,65.8407705 78.4994,63.4569016 77.2089143,61.0716721 C76.3118857,59.4116721 73.8061143,60.8934262 74.7044857,62.5547869" id="Fill-5"></path>
                        <path d="M11.9353143,45.1819344 C13.2258,47.5671639 14.5149429,49.9523934 15.8040857,52.337623 C16.7011143,53.9962623 19.2082286,52.5145082 18.3098571,50.8531475 C17.0207143,48.467918 15.7302286,46.0840492 14.4410857,43.6988197 C13.5440571,42.0388197 11.0369429,43.5205738 11.9353143,45.1819344" id="Fill-6"></path>
                        <path d="M23.7470857,53.6329672 C25.0362286,56.0181967 26.3253714,58.4020656 27.6158571,60.7872951 C28.5128857,62.4472951 31.0186571,60.965541 30.1202857,59.3041803 C28.8311429,56.9189508 27.542,54.5337213 26.2515143,52.1484918 C25.3544857,50.4884918 22.8487143,51.9716066 23.7470857,53.6329672" id="Fill-7"></path>
                        <path d="M20.3684571,63.1493934 C21.6576,65.534623 22.9467429,67.9198525 24.2372286,70.305082 C25.1342571,71.9637213 27.6413714,70.4819672 26.7416571,68.8206066 C25.4525143,66.435377 24.1633714,64.0501475 22.8742286,61.6662787 C21.9758571,60.0062787 19.4700857,61.4880328 20.3684571,63.1493934" id="Fill-8"></path>
                        <path d="M33.8641714,64.7903443 C35.1533143,67.1742131 36.4424571,69.5594426 37.7329429,71.9446721 C38.6299714,73.6046721 41.1357429,72.122918 40.2373714,70.4601967 C38.9482286,68.0763279 37.6590857,65.6910984 36.3686,63.3058689 C35.4715714,61.6458689 32.9658,63.1289836 33.8641714,64.7903443" id="Fill-9"></path>
                        <polyline id="Fill-10" points="61.8560286 45.9629508 61.5471714 46.108541 61.9245143 46.108541 61.8560286 45.9629508"></polyline>
                        <polyline id="Fill-11" points="47.8580857 45.8309672 47.4256857 46.108541 48.0326571 46.108541 47.8580857 45.8309672"></polyline>
                        <path d="M67.9727429,64.6950984 L63.2996,64.6950984 C62.6805429,64.6950984 62.1058,65.0066885 61.7620286,65.530541 C61.4196,66.0530328 61.3551429,66.7115902 61.5941714,67.2912295 L65.9812857,77.9233934 L48.1172571,58.728623 L52.5889714,58.728623 C53.2630857,58.728623 53.8848286,58.3558033 54.2084571,57.7571148 C54.5334286,57.1570656 54.5106,56.4277541 54.1480286,55.8494754 L49.7313714,48.8135246 L46.9798571,48.8135246 L51.7268571,56.3760492 L47.0228286,56.3760492 C46.2842571,56.3760492 45.6168571,56.8209836 45.3254571,57.5067541 C45.0327143,58.1938852 45.1710286,58.9898689 45.6772857,59.5341311 L66.0726,81.4488525 C66.4378571,81.842082 66.9199429,82.0448197 67.4114286,82.0448197 C67.7578857,82.0448197 68.1083714,81.9441311 68.4239429,81.7359508 C69.1853429,81.2352295 69.4740571,80.2922951 69.1235714,79.4418852 L64.0099714,67.0476721 L68.7166857,67.0476721 C69.3532,67.0476721 69.9373429,66.7211148 70.2784286,66.1768525 C70.6181714,65.6325902 70.6611429,64.9590656 70.3898857,64.3780656 L63.1774,48.8135246 L60.6138857,48.8135246 L67.9727429,64.6950984" id="Fill-12"></path>
                    </g>
                </g>
            </g>
        </g>
    </g>
</svg>
